<svg xmlns="http://www.w3.org/2000/svg" width="400" height="520" viewBox="0 0 400 520">
  <!-- Background -->
  <rect width="100%" height="100%" fill="#f9fafb" />

  <!-- Paper -->
  <rect x="24" y="24" width="352" height="472" rx="8" fill="#ffffff" stroke="#e5e7eb" stroke-width="2" />

  <!-- Header -->
  <rect x="48" y="48" width="120" height="12" rx="6" fill="#4f46e5" opacity="0.3" />
  <rect x="48" y="68" width="80" height="8" rx="4" fill="#7c3aed" opacity="0.2" />

  <!-- Content lines -->
  <rect x="48" y="100" width="304" height="6" rx="3" fill="#d1d5db" />
  <rect x="48" y="116" width="280" height="6" rx="3" fill="#d1d5db" />
  <rect x="48" y="132" width="296" height="6" rx="3" fill="#d1d5db" />

  <rect x="48" y="160" width="304" height="6" rx="3" fill="#d1d5db" />
  <rect x="48" y="176" width="260" height="6" rx="3" fill="#d1d5db" />
  <rect x="48" y="192" width="288" height="6" rx="3" fill="#d1d5db" />

  <rect x="48" y="220" width="304" height="6" rx="3" fill="#d1d5db" />
  <rect x="48" y="236" width="272" height="6" rx="3" fill="#d1d5db" />

  <rect x="48" y="264" width="304" height="6" rx="3" fill="#d1d5db" />
  <rect x="48" y="280" width="296" height="6" rx="3" fill="#d1d5db" />
  <rect x="48" y="296" width="280" height="6" rx="3" fill="#d1d5db" />

  <!-- Icon/placeholder -->
  <circle cx="200" cy="380" r="40" fill="#e5e7eb" />
  <text x="200" y="395" font-family="Arial, sans-serif" font-size="16" fill="#9ca3af" text-anchor="middle" font-weight="600">Preview</text>
</svg>